<svg width="210" height="135" viewBox="0 0 210 135" fill="none" xmlns="http://www.w3.org/2000/svg">
<path d="M122.397 76.4009C122.757 76.9405 123.082 77.5111 123.486 78.0109C123.841 78.4791 124.298 78.8573 124.821 79.1162C125.343 79.3752 125.917 79.5079 126.498 79.504C127.078 79.5002 127.65 79.3599 128.169 79.094C128.689 78.8282 129.141 78.4439 129.49 77.9711C131.944 74.9014 130.913 68.8417 127.609 66.7496C126.087 65.7898 124.478 65.604 123.204 66.8646C121.929 68.1252 120.464 69.6423 119.857 71.3275C115.608 83.1771 112.204 95.2965 110.582 107.814C109.776 114.064 109.863 120.442 109.715 126.767C109.663 128.877 110.097 131.009 110.409 133.114C110.613 134.441 110.24 135.034 108.853 134.999C102.644 134.83 96.4308 134.755 90.209 134.49C89.6541 134.468 88.7739 133.375 88.6785 132.685C87.2781 122.685 88.6135 113.055 92.3292 103.678C95.0607 96.7915 97.7401 89.856 99.9253 82.7746C103.303 71.8096 101.517 61.1012 97.4757 50.6184C97.2459 50.0169 97.0074 49.4153 96.6605 48.5263C99.262 48.2387 101.686 47.7611 104.105 47.7389C113.995 47.6505 123.884 47.6903 133.774 47.7035C135.834 47.7035 137.351 48.3714 138.361 50.5432C142.528 59.5399 145.936 68.709 145.784 78.8513C145.645 88.1797 140.815 94.3322 131.91 96.5836C131.428 96.7551 130.959 96.9606 130.505 97.1984C131.298 98.1671 132.014 98.9677 132.634 99.8169C135.925 104.373 136.319 109.42 135.04 114.758C133.635 120.615 132.291 126.488 130.843 132.331C130.739 132.643 130.565 132.926 130.335 133.156C130.104 133.387 129.824 133.559 129.516 133.658C126.148 134.052 122.757 134.229 119.388 134.609C117.654 134.804 116.787 134.003 116.492 132.446C115.833 129.129 114.896 125.812 114.701 122.468C114.024 111.487 115.125 100.468 117.958 89.8516C119.171 85.3223 120.472 80.8196 121.738 76.3035L122.397 76.4009Z" fill="white"/>
<path d="M85.7737 134.375L69.7576 132.606C70.1912 128.603 70.8112 124.905 70.9456 121.185C71.151 116.632 71.0743 112.07 70.7158 107.527C70.5467 105.602 69.4151 103.625 68.3312 101.962C67.0608 100.043 64.932 99.4764 62.7251 100.003C60.5182 100.529 59.4256 102.387 59.0268 104.483C58.7874 105.577 58.8728 106.718 59.2721 107.762C59.6713 108.806 60.3663 109.705 61.2683 110.344C63.3104 111.874 65.075 110.693 66.857 109.083C68.1014 111.919 67.8846 114.785 67.503 117.439C66.9936 120.914 66.096 124.318 64.8279 127.585C63.6313 130.682 61.7149 131.35 58.5325 130.717C54.9208 129.996 51.3049 129.306 47.6932 128.505C47.0255 128.355 46.0587 127.838 45.9156 127.298C43.8995 119.779 42.5901 112.211 43.8865 104.399C44.9141 98.176 48.4953 94.2261 54.2922 92.3419C58.0729 91.1078 61.9057 90.0374 65.6517 88.7105C70.8025 86.8837 75.4417 84.2343 78.0821 79.0415C79.4587 76.5066 79.9682 73.576 79.5303 70.7128C78.9493 67.2317 75.6281 65.8473 72.8793 67.9881C68.8168 71.1507 69.0249 76.4451 73.5036 79.2184C71.3358 82.1068 68.4482 83.7522 65.1618 84.6943C60.8872 85.8731 56.3813 85.864 52.1113 84.6677C50.6719 84.2918 50.351 83.7079 50.8106 82.1598C53.0175 74.8042 53.412 67.2539 52.7747 59.624C52.7662 59.2553 52.7358 58.8875 52.6836 58.5226C52.2501 56.311 52.9134 55.2716 55.285 54.9001C67.1128 53.0423 78.9103 50.9723 90.725 49.0394C93.76 48.5396 93.8814 48.7784 94.9393 51.6933C98.3342 61.088 99.9124 70.7614 97.35 80.5233C95.5507 87.388 92.7065 93.974 90.2221 100.64C87.7377 107.305 85.2057 114.02 85.1754 121.322C85.1754 124.781 85.3661 128.24 85.4875 131.699C85.5656 132.438 85.661 133.136 85.7737 134.375Z" fill="white"/>
<path d="M21.215 108.508C20.4129 110.185 19.9143 111.388 19.2813 112.529C17.3042 116.147 13.9267 117.443 10.0679 116.103C9.45126 115.894 8.84751 115.647 8.25991 115.364C6.69906 114.599 4.55722 114.179 3.78113 112.901C3.07441 111.733 3.82015 109.623 3.97624 107.933C4.35344 103.758 3.65106 99.724 2.51944 95.7388C0.694114 89.3473 -0.268411 82.8011 0.0654377 76.1045C0.277887 71.7831 0.858871 70.9957 4.83471 69.6423C6.33919 69.1292 7.82634 68.5276 9.36118 68.134C11.0261 67.6917 12.5869 67.9305 13.3674 69.7882C15.9688 75.9806 15.8084 82.3809 14.4339 88.8077C14.3949 89.0023 14.1781 89.1527 14.1088 89.25C12.9381 89.02 11.8282 88.5998 10.7226 88.6219C8.88425 88.6529 7.96942 90.2806 8.61977 92.0455C9.4132 94.2039 11.1562 95.4955 13.1809 95.5088C15.3791 95.5088 16.3286 93.9607 16.6885 92.2091C17.5296 88.1177 18.4792 83.9909 18.6786 79.8243C18.891 75.525 18.245 71.1904 18.0499 66.8645C18.0196 66.2188 18.4098 65.0953 18.8477 64.9582C24.1633 63.1889 29.5265 61.5302 35.4491 59.6504C33.3419 62.4547 31.625 64.6751 29.9774 66.9442C25.6808 72.8889 23.5909 79.497 24.2803 86.8615C24.5968 90.2452 25.2732 93.598 27.7055 96.1988C28.9195 97.4992 30.5367 98.4855 32.1453 97.5257C33.3661 96.7145 34.2827 95.5067 34.7467 94.0978C35.3103 92.3285 34.7467 90.3425 32.9561 89.5641C31.573 88.9581 29.8647 89.1218 27.9136 88.9094C26.6129 86.3042 26.8774 83.0223 27.7099 79.9261C30.4457 69.7528 36.4506 62.1406 45.742 57.3681C46.7349 56.855 47.9099 56.6736 49.2106 56.2667C49.4538 57.1867 49.6378 58.122 49.7612 59.0666C50.2858 68.6426 49.3277 77.9578 46.0499 87.0783C44.0198 92.9679 42.3958 98.9951 41.1895 105.116C39.8888 111.423 41.1028 117.726 42.4122 123.941C42.6073 124.865 42.7634 125.794 43.0409 127.276C37.8077 125.843 32.7436 125.228 28.4166 122.189C23.8988 119.027 23.1704 113.675 21.215 108.508Z" fill="white"/>
<path d="M163.586 128.443L175.292 95.9731L189.37 106.704C188.178 108.424 186.769 109.937 185.984 111.737C185.043 113.909 186.448 115.431 188.72 114.878C191.321 114.245 193.489 112.785 194.192 110.056C194.885 107.438 193.693 105.288 191.642 103.7C189.591 102.112 187.419 100.604 185.321 99.0472C179.771 94.9116 177.69 88.8298 176.688 82.3101C175.21 72.6853 171.919 63.6798 168.229 54.7761C168.095 54.4488 167.987 54.1038 167.744 53.4491C168.702 53.6305 169.439 53.7012 170.137 53.8914C181.588 57.2276 192.766 61.4704 203.57 66.5814C204.311 66.9308 205.17 67.7712 205.334 68.532C206.869 75.494 208.335 82.4737 209.67 89.48C210.043 91.4527 209.891 93.5272 210 95.9024L195.08 84.1501C197.227 80.0631 196.329 76.0513 192.986 73.6805C191.057 72.3138 189.609 72.9021 189.37 75.2817C189.205 76.9038 189.377 78.5434 189.877 80.0925C190.377 81.6416 191.193 83.0651 192.271 84.2695C194.356 86.6846 196.819 88.759 199.178 90.9042C200.192 91.8331 201.372 92.5806 202.468 93.421C209.497 98.8261 210.273 104.386 206.856 113.391C206.063 115.484 204.662 116.558 202.603 117.337C190.537 121.919 178.085 125.082 165.593 128.116C165.06 128.271 164.505 128.297 163.586 128.443Z" fill="white"/>
<path d="M133.645 133.707C134.434 129.726 135.01 126.559 135.7 123.414C137.612 114.652 141.705 106.721 144.865 98.4325C146.431 94.3367 147.514 90.0507 148.872 85.6585C149.669 86.1716 150.606 86.7864 151.542 87.3835C154.876 89.4801 158.453 89.5376 161.948 88.1443C164.983 86.9279 166.67 84.4819 166.778 80.9567C166.904 76.7768 165.911 73.0437 162.95 70.0714C160.665 67.7846 158.566 68.4481 157.716 71.5929C157.216 73.6339 157.428 75.7891 158.318 77.6873C159.208 79.5855 160.718 81.1077 162.59 81.9917C161.484 84.2033 158.948 85.1985 156.151 84.4864C154.798 84.1819 153.543 83.529 152.507 82.5898C151.471 81.6506 150.688 80.4565 150.233 79.1211C149.218 76.2328 148.837 73.1233 147.896 70.2041C145.915 64.0692 143.764 57.9962 141.648 51.91C141.293 50.8882 140.781 49.9284 140.092 48.3715C143.044 48.7386 145.581 48.9642 148.082 49.3932C153.055 50.2424 158.02 51.1625 162.963 52.1621C163.76 52.3257 164.801 52.9538 165.13 53.6527C168.738 61.6143 171.972 69.7308 173.446 78.4222C174.829 86.5652 173.42 94.4119 170.598 102.033C167.437 110.57 164.181 119.071 160.894 127.559C160.626 128.258 159.871 129.129 159.221 129.248C150.914 130.788 142.611 132.172 133.645 133.707Z" fill="white"/>
<path d="M107.868 31.935C109.169 31.1831 110.647 30.8469 110.99 30.0242C111.77 28.1356 110.556 26.4857 109.065 25.5569C107.978 24.9726 106.719 24.8152 105.527 25.1146C104.998 25.2473 104.399 26.8529 104.542 27.6623C104.958 29.9885 105.561 32.2757 106.346 34.5005C107.53 37.9549 108.891 41.3519 110.248 44.9125C109.91 45.1129 109.545 45.2619 109.164 45.3548C106.06 45.5096 102.956 45.5937 99.8555 45.7618C98.7109 45.8237 98.182 45.4035 97.9478 44.2358C96.2136 35.5885 94.3275 26.9855 92.745 18.3029C91.9299 13.8311 91.5613 9.26647 91.1408 4.72833C90.7853 0.946551 90.9457 0.871358 94.6093 0.703279C95.3334 0.667893 96.0531 0.619239 96.7772 0.530776C102.093 -0.163656 105.071 2.1231 105.696 7.51933C105.77 8.69742 105.777 9.8789 105.717 11.0578C105.522 11.143 105.314 11.191 105.102 11.1994C103.367 10.85 101.854 11.0534 101.438 13.1765C101.13 14.7202 102.405 16.2727 104.256 16.83C104.636 16.9597 105.038 17.0074 105.437 16.9701C105.835 16.9328 106.222 16.8112 106.573 16.6132C106.923 16.4152 107.229 16.1451 107.471 15.82C107.714 15.4948 107.887 15.1218 107.981 14.7246C108.308 13.5189 108.474 12.2736 108.475 11.0225C108.54 7.56356 108.497 4.10025 108.497 0L124.5 1.70291C123.086 6.19681 121.465 10.3501 120.498 14.6583C119.145 20.802 119.938 26.9413 121.465 33.0187C122.301 36.3537 122.765 39.7861 123.342 43.1919C123.628 44.8948 123.117 45.5804 121.126 45.5671C115.885 45.5671 112.598 42.8381 110.482 38.2778C109.468 36.0839 108.635 33.8104 107.868 31.935Z" fill="white"/>
<path d="M94.9525 38.269C90.348 30.9973 84.4038 24.6678 81.5422 16.9804C82.7735 15.8835 84.0656 15.2112 84.5772 14.1496C85.3186 12.6723 84.1133 10.7748 82.5654 10.3413C80.8788 9.87244 78.9451 10.6819 78.8887 12.3936C78.815 14.5831 79.0362 17.0202 79.9423 18.9531C81.7763 22.8543 84.1783 26.4725 86.3158 30.2277C88.7929 34.5506 91.2383 38.8912 93.6518 43.2494C94.0212 44.0261 94.3357 44.8287 94.5926 45.6512L69.0597 50.0743C70.6336 45.1514 72.4892 39.8259 74.0198 34.4076C75.4028 29.5067 75.4375 24.4998 73.7249 19.6299C73.2032 18.1044 72.4734 16.6616 71.5571 15.3439C70.5685 13.9683 68.921 13.464 67.5422 14.5167C67.1525 14.8932 66.8537 15.3568 66.6694 15.871C66.485 16.3852 66.4202 16.9361 66.48 17.4802C66.5474 17.8496 66.6897 18.2006 66.8975 18.5107C67.1054 18.8208 67.3744 19.0833 67.6874 19.2815C68.0003 19.4796 68.3503 19.609 68.715 19.6613C69.0797 19.7137 69.4511 19.6879 69.8054 19.5856C71.3533 19.223 71.9039 19.9705 71.995 21.1647C72.2118 24.1415 72.8058 27.2377 72.2595 30.0862C71.2492 35.3055 69.528 40.3832 68.1015 45.5229L67.2777 45.4035C66.8875 41.8119 66.6144 38.1982 66.0767 34.6287C65.4784 30.6479 64.8888 26.614 63.8265 22.7393C62.877 19.276 60.9736 16.2727 57.0151 14.9723C59.6196 12.0218 62.8762 9.74733 66.5147 8.33762C72.8968 5.87393 79.4871 3.94987 86.0253 1.95061C88.3753 1.23406 88.3709 1.59233 88.7785 4.06044C90.5127 14.4283 92.3381 24.7696 94.1591 35.1197C94.3585 36.1724 94.6924 37.2118 94.9525 38.269Z" fill="white"/>
<path d="M140.763 24.8537C139.098 25.1765 137.09 25.349 135.226 25.9771C133.284 26.6362 132.282 28.3214 132.23 30.4268C132.174 32.687 132.915 34.6819 134.81 35.9513C135.141 36.1347 135.51 36.2355 135.887 36.2454C136.264 36.2554 136.637 36.1744 136.978 36.0088C137.265 35.7565 137.488 35.4376 137.629 35.0789C137.77 34.7203 137.825 34.3323 137.788 33.9476C137.547 32.8171 137.014 31.7728 136.245 30.9222C134.988 29.6351 135.499 28.8964 136.657 28.1622C138.508 26.9856 144.964 27.627 146.429 29.1529C146.564 29.3076 146.665 29.4897 146.726 29.6872C146.786 29.8847 146.805 30.0931 146.781 30.2985C145.558 35.6859 146.581 40.8212 148.342 45.8901C148.406 46.2103 148.437 46.5364 148.437 46.8632C145.835 46.7438 143.329 46.642 140.832 46.5049C136.288 46.2572 131.749 46.0626 127.218 45.6822C126.598 45.6291 125.622 44.9258 125.51 44.3553C124.354 38.7526 123.287 33.1279 122.31 27.481C120.944 19.6388 122.531 12.2654 125.878 5.18839C126.836 3.16702 127.977 2.27355 130.418 3.06529C137.216 5.27685 144.101 7.18323 150.965 9.18248C152.486 9.6248 152.76 10.3812 152.265 11.9425C151.238 15.3129 150.384 18.7409 149.603 22.1777C149.2 23.9734 148.303 24.3361 146.664 23.9469C142.462 22.9959 138.495 21.5938 135.222 18.2455C135.447 18.0435 135.697 17.8738 135.967 17.7413C137.498 17.3387 138.447 16.3568 138.278 14.7468C138.109 13.1368 136.891 12.4644 135.36 12.3362C133.67 12.1946 132.594 12.9554 132.057 14.5477C131.45 16.3657 132.49 18.9709 134.71 20.6251C136.787 22.2307 138.972 23.624 140.763 24.8537Z" fill="white"/>
</svg>
