<?xml version="1.0" encoding="utf-8"?>
<!-- Generator: Adobe Illustrator 23.0.6, SVG Export Plug-In . SVG Version: 6.00 Build 0)  -->
<svg version="1.1" id="Calque_1" xmlns="http://www.w3.org/2000/svg" xmlns:xlink="http://www.w3.org/1999/xlink" x="0px" y="0px"
	 viewBox="0 0 24 24" style="enable-background:new 0 0 24 24;" xml:space="preserve">
<style type="text/css">
	.st0{fill:#EFEADE;}
</style>
<path class="st0" d="M12,0C9.6,0,7.3,0.7,5.3,2c-2,1.3-3.5,3.2-4.4,5.4C0,9.6-0.2,12,0.2,14.3s1.6,4.5,3.3,6.1
	c1.7,1.7,3.8,2.8,6.1,3.3c2.3,0.5,4.7,0.2,6.9-0.7c2.2-0.9,4.1-2.4,5.4-4.4c1.3-2,2-4.3,2-6.7c0-3.2-1.3-6.2-3.5-8.5
	C18.2,1.3,15.2,0,12,0z M18,14.6c0,0.5-0.2,1-0.4,1.4c-0.3,0.4-0.7,0.8-1.2,0.9c-0.5,0.2-1,0.2-1.5,0.1c-0.5-0.1-1-0.3-1.3-0.7
	s-0.6-0.8-0.7-1.3c-0.1-0.5,0-1,0.1-1.5c0.2-0.5,0.5-0.9,0.9-1.2c0.4-0.3,0.9-0.4,1.4-0.4c0.3,0,0.6,0.1,0.9,0.2V7l-6,0.7v7.8
	c0,0.5-0.2,1-0.4,1.4c-0.3,0.4-0.7,0.8-1.2,0.9C8.2,18,7.7,18,7.2,18c-0.5-0.1-1-0.3-1.3-0.7c-0.4-0.4-0.6-0.8-0.7-1.3
	c-0.1-0.5,0-1,0.1-1.5c0.2-0.5,0.5-0.9,0.9-1.2c0.4-0.3,0.9-0.4,1.4-0.4c0.3,0,0.6,0.1,0.9,0.2V6.9c0-0.2,0.1-0.4,0.2-0.6
	C8.9,6.1,9.1,6,9.3,6L17,5.1c0.1,0,0.2,0,0.4,0c0.1,0,0.2,0.1,0.3,0.2c0.1,0.1,0.2,0.2,0.2,0.3C18,5.8,18,5.9,18,6V14.6z"/>
</svg>
