<svg width="27" height="18" viewBox="0 0 27 18" fill="none" xmlns="http://www.w3.org/2000/svg">
<path d="M26.0606 2.77565C25.7538 1.69044 24.8551 0.834783 23.7154 0.542609C21.6332 0 13.3043 0 13.3043 0C13.3043 0 4.97541 0 2.89319 0.521739C1.77537 0.813913 0.854806 1.69044 0.547953 2.77565C0 4.75826 0 8.86957 0 8.86957C0 8.86957 0 13.0017 0.547953 14.9635C0.854806 16.0487 1.75345 16.9044 2.89319 17.1965C4.99733 17.7391 13.3043 17.7391 13.3043 17.7391C13.3043 17.7391 21.6332 17.7391 23.7154 17.2174C24.8551 16.9252 25.7538 16.0696 26.0606 14.9844C26.6086 13.0017 26.6086 8.89044 26.6086 8.89044C26.6086 8.89044 26.6305 4.75826 26.0606 2.77565ZM10.6522 12.6678V5.07131L17.5783 8.86957L10.6522 12.6678Z" fill="#EFEADE"/>
</svg>
